<svg width="160" height="24" viewBox="0 0 160 24" fill="none" xmlns="http://www.w3.org/2000/svg">
<g clip-path="url(#clip0_2844_9574)">
<path d="M2 9.43278V18.5171H15.3462L3.88611 8.57198C3.14965 7.93307 2 8.45529 2 9.43278Z" fill="#2C52E9"/>
<path d="M15.3466 5.17285H6.2604C5.28292 5.17285 4.75879 6.3225 5.3996 7.05896L15.3447 18.5172V5.17285H15.3466Z" fill="#2C52E9"/>
<path d="M25.9102 8.82839C25.849 8.25835 25.5946 7.81456 25.1432 7.49702C24.6917 7.17948 24.1083 7.02071 23.3891 7.02071C22.8841 7.02071 22.4517 7.09723 22.0902 7.24834C21.7287 7.39946 21.4532 7.60797 21.2619 7.86812C21.0706 8.12827 20.9731 8.42668 20.9673 8.76335C20.9673 9.04264 21.0324 9.28366 21.1605 9.48834C21.2887 9.69302 21.4647 9.86709 21.6866 10.0067C21.9085 10.1483 22.1552 10.2669 22.425 10.3625C22.6947 10.4582 22.9663 10.5385 23.2418 10.6036L24.4947 10.9173C24.9997 11.034 25.4856 11.1946 25.9542 11.3936C26.4229 11.5944 26.8418 11.8469 27.2148 12.1511C27.5879 12.4552 27.8824 12.8225 28.1005 13.2548C28.3186 13.6852 28.4257 14.1902 28.4257 14.7698C28.4257 15.5541 28.2248 16.2428 27.8251 16.8357C27.4253 17.4287 26.8476 17.8936 26.092 18.2264C25.3364 18.5593 24.4239 18.7257 23.3527 18.7257C22.2815 18.7257 21.4111 18.565 20.646 18.2417C19.8827 17.9204 19.2859 17.4498 18.8574 16.8319C18.4289 16.2141 18.1975 15.4604 18.1611 14.5728H20.5446C20.579 15.0395 20.7225 15.4259 20.975 15.7358C21.2275 16.0438 21.5565 16.2753 21.964 16.4283C22.3714 16.5813 22.8267 16.6559 23.3317 16.6559C23.8367 16.6559 24.3206 16.5756 24.7185 16.4187C25.1164 16.26 25.4282 16.0381 25.6558 15.7531C25.8816 15.468 25.9982 15.1333 26.0021 14.7507C25.9982 14.4026 25.8949 14.1137 25.696 13.8861C25.4952 13.6584 25.2159 13.4671 24.8562 13.3122C24.4966 13.1573 24.0777 13.0195 23.5995 12.8971L22.0787 12.505C20.9769 12.2219 20.1085 11.7915 19.4715 11.2157C18.8345 10.6399 18.515 9.87283 18.515 8.91447C18.515 8.12636 18.7293 7.43772 19.1577 6.84472C19.5862 6.25364 20.1697 5.79264 20.91 5.46362C21.6502 5.1346 22.4881 4.97009 23.4235 4.97009C24.3589 4.97009 25.2044 5.1346 25.9198 5.46362C26.6352 5.79264 27.1976 6.2479 27.607 6.82751C28.0163 7.40903 28.2268 8.07663 28.2401 8.82839H25.9102Z" fill="#2B2B2B"/>
<path d="M30.0137 22.2837V8.49556H32.3378V10.154H32.4756C32.598 9.91109 32.7701 9.65094 32.992 9.37357C33.2139 9.0962 33.5143 8.86092 33.893 8.66198C34.2718 8.46304 34.7538 8.36548 35.3411 8.36548C36.1158 8.36548 36.8159 8.56251 37.4395 8.95656C38.0631 9.35062 38.5605 9.93214 38.9277 10.6992C39.295 11.4663 39.4787 12.4093 39.4787 13.5226C39.4787 14.6359 39.2969 15.5599 38.9373 16.3308C38.5758 17.1016 38.0842 17.6889 37.4625 18.0925C36.8408 18.4961 36.1349 18.6989 35.3468 18.6989C34.7729 18.6989 34.2966 18.6033 33.9179 18.412C33.5391 18.2207 33.235 17.9892 33.0073 17.7157C32.7797 17.4421 32.6018 17.1858 32.4756 16.941H32.378V22.2818H30.0156L30.0137 22.2837ZM32.3321 13.5092C32.3321 14.1577 32.4239 14.7258 32.6095 15.2136C32.795 15.7014 33.0628 16.0821 33.4129 16.3537C33.7629 16.6253 34.1895 16.7612 34.6888 16.7612C35.188 16.7612 35.649 16.6215 36.001 16.3403C36.3549 16.0591 36.6208 15.6746 36.8006 15.1849C36.9804 14.6952 37.0703 14.1367 37.0703 13.5112C37.0703 12.8856 36.9804 12.3366 36.8025 11.8527C36.6246 11.3687 36.3587 10.99 36.0068 10.7164C35.6548 10.4429 35.2148 10.3051 34.6888 10.3051C34.1627 10.3051 33.7553 10.4371 33.4033 10.703C33.0513 10.9689 32.7835 11.34 32.6037 11.8202C32.422 12.2984 32.3321 12.8627 32.3321 13.5112V13.5092Z" fill="#2B2B2B"/>
<path d="M45.4126 18.7181C44.4332 18.7181 43.5858 18.502 42.8665 18.0716C42.1492 17.6412 41.5926 17.0386 41.1985 16.2639C40.8044 15.4892 40.6074 14.5844 40.6074 13.5476C40.6074 12.5108 40.8044 11.6041 41.1985 10.8255C41.5926 10.047 42.1492 9.4406 42.8665 9.0102C43.5839 8.5798 44.4332 8.36365 45.4126 8.36365C46.392 8.36365 47.2394 8.5798 47.9587 9.0102C48.676 9.4406 49.2326 10.047 49.6267 10.8255C50.0208 11.6041 50.2178 12.5127 50.2178 13.5476C50.2178 14.5825 50.0208 15.4892 49.6267 16.2639C49.2326 17.0386 48.676 17.6412 47.9587 18.0716C47.2413 18.502 46.392 18.7181 45.4126 18.7181ZM45.4241 16.8263C45.9539 16.8263 46.3997 16.679 46.7554 16.3863C47.1132 16.0917 47.3791 15.6977 47.555 15.2022C47.731 14.7068 47.819 14.154 47.819 13.5438C47.819 12.9335 47.731 12.375 47.555 11.8757C47.3791 11.3764 47.1132 10.9805 46.7554 10.684C46.3997 10.3875 45.9539 10.2402 45.4241 10.2402C44.8942 10.2402 44.4294 10.3875 44.0698 10.684C43.7101 10.9805 43.4442 11.3764 43.2663 11.8757C43.0904 12.375 43.0024 12.9297 43.0024 13.5438C43.0024 14.1578 43.0904 14.7068 43.2663 15.2022C43.4423 15.6977 43.7101 16.0936 44.0698 16.3863C44.4294 16.679 44.8808 16.8263 45.4241 16.8263Z" fill="#2B2B2B"/>
<path d="M56.7616 8.49561V10.3224H50.998V8.49561H56.7616ZM52.4193 6.09302H54.7817V15.5063C54.7817 15.8239 54.8315 16.0668 54.929 16.2352C55.0266 16.4035 55.1567 16.5164 55.3173 16.5776C55.478 16.6388 55.6559 16.6694 55.853 16.6694C56.0002 16.6694 56.138 16.6579 56.2604 16.6369C56.3847 16.6158 56.4785 16.5967 56.5435 16.5776L56.9414 18.4254C56.8151 18.4694 56.6353 18.5172 56.402 18.5689C56.1686 18.6205 55.8855 18.6511 55.5507 18.6607C54.9596 18.6779 54.4259 18.588 53.9515 18.3891C53.4771 18.192 53.1022 17.8841 52.8249 17.4651C52.5494 17.0481 52.4117 16.5259 52.4174 15.8985V6.09302H52.4193Z" fill="#2B2B2B"/>
<path d="M60.8507 5.15369V18.5229H58.4883V5.15369H60.8507Z" fill="#2B2B2B"/>
<path d="M64.0073 7.07239C63.6324 7.07239 63.311 6.94805 63.0413 6.69746C62.7716 6.44687 62.6357 6.14464 62.6357 5.79266C62.6357 5.44069 62.7696 5.13272 63.0413 4.88213C63.3129 4.63154 63.6324 4.5072 64.0073 4.5072C64.3822 4.5072 64.7093 4.63154 64.9771 4.88213C65.2449 5.13272 65.3788 5.43687 65.3788 5.79266C65.3788 6.14846 65.2449 6.44687 64.9771 6.69746C64.7093 6.94805 64.386 7.07239 64.0073 7.07239ZM62.8194 18.5229V8.49558H65.1818V18.5229H62.8194Z" fill="#2B2B2B"/>
<path d="M71.5139 22.4922C70.6665 22.4922 69.9357 22.3775 69.3274 22.1498C68.7191 21.9222 68.2275 21.6161 67.8583 21.2336C67.4892 20.851 67.2328 20.4263 67.0874 19.9615L69.2146 19.445C69.3102 19.6401 69.4499 19.8352 69.6316 20.0304C69.8133 20.2255 70.062 20.3842 70.3719 20.5143C70.6837 20.6425 71.0758 20.7075 71.5502 20.7075C72.2197 20.7075 72.7745 20.5449 73.2144 20.2217C73.6544 19.8984 73.8744 19.3647 73.8744 18.6263V16.7268H73.7577C73.6353 16.9697 73.4593 17.2203 73.2259 17.4767C72.9925 17.733 72.6865 17.9491 72.3058 18.1232C71.9251 18.2973 71.4469 18.3834 70.8731 18.3834C70.1022 18.3834 69.4059 18.2016 68.7804 17.8382C68.1568 17.4747 67.6594 16.9315 67.2921 16.2065C66.9248 15.4815 66.7412 14.5729 66.7412 13.4806C66.7412 12.3884 66.9248 11.4491 67.2921 10.6897C67.6594 9.9303 68.1567 9.35452 68.7842 8.96047C69.4116 8.56641 70.1098 8.36938 70.8807 8.36938C71.468 8.36938 71.9519 8.46885 72.3326 8.66588C72.7133 8.86291 73.0174 9.10011 73.2431 9.37748C73.4688 9.65485 73.641 9.91309 73.7596 10.1579H73.8897V8.49946H76.2196V18.6894C76.2196 19.5464 76.0149 20.2561 75.6055 20.8166C75.1962 21.3789 74.6376 21.7979 73.9279 22.0772C73.2183 22.3564 72.4129 22.4942 71.512 22.4942L71.5139 22.4922ZM71.533 16.5259C72.0342 16.5259 72.4607 16.4035 72.8127 16.1606C73.1647 15.9176 73.4325 15.5657 73.6161 15.1104C73.7998 14.6551 73.8897 14.1042 73.8897 13.4653C73.8897 12.8264 73.7998 12.2812 73.6181 11.8068C73.4363 11.3325 73.1723 10.9633 72.8223 10.7012C72.4722 10.4391 72.0418 10.3052 71.533 10.3052C71.0242 10.3052 70.567 10.441 70.215 10.7165C69.863 10.99 69.5972 11.365 69.4193 11.8432C69.2414 12.3195 69.1515 12.8609 69.1515 13.4653C69.1515 14.0698 69.2414 14.615 69.4231 15.0741C69.6048 15.5332 69.8707 15.8909 70.2265 16.1453C70.5804 16.3997 71.0165 16.5279 71.5349 16.5279L71.533 16.5259Z" fill="#2B2B2B"/>
<path d="M80.5519 12.6484V18.5248H78.1895V5.15369H80.5002V10.1999H80.6169C80.8522 9.63368 81.2156 9.18797 81.7111 8.85895C82.2046 8.52994 82.8339 8.36543 83.601 8.36543C84.2973 8.36543 84.9037 8.51081 85.4221 8.80348C85.9405 9.09615 86.3422 9.52081 86.6272 10.0832C86.9122 10.6456 87.0538 11.3304 87.0538 12.1396V18.5248H84.6914V12.5049C84.6914 11.8297 84.5173 11.3055 84.173 10.9287C83.8267 10.5519 83.3428 10.3644 82.7211 10.3644C82.3041 10.3644 81.9292 10.4543 81.602 10.636C81.273 10.8158 81.0167 11.076 80.8312 11.4165C80.6456 11.7551 80.5538 12.1663 80.5538 12.6503L80.5519 12.6484Z" fill="#2B2B2B"/>
<path d="M94.0037 8.49561V10.3224H88.2383V8.49561H94.0037ZM89.6615 6.09302H92.0258V15.5063C92.0258 15.8239 92.0736 16.0668 92.1731 16.2352C92.2707 16.4035 92.4007 16.5164 92.5614 16.5776C92.7221 16.6388 92.9 16.6694 93.097 16.6694C93.2443 16.6694 93.382 16.6579 93.5045 16.6369C93.6288 16.6158 93.7225 16.5967 93.7895 16.5776L94.1874 18.4254C94.0611 18.4694 93.8813 18.5172 93.6479 18.5689C93.4146 18.6205 93.1315 18.6511 92.7967 18.6607C92.2056 18.6779 91.6719 18.588 91.1975 18.3891C90.7231 18.192 90.3482 17.8841 90.0708 17.4651C89.7935 17.0481 89.6576 16.5259 89.6634 15.8985V6.09302H89.6615Z" fill="#2B2B2B"/>
<path d="M99.8396 5.15955L101.829 15.6824H101.967L106.931 5.15955H109.593L102.986 18.5287H99.9965L97.1826 5.15955H99.8396Z" fill="#2C52E9"/>
<path d="M112.234 18.7255C111.228 18.7255 110.392 18.5151 109.722 18.0962C109.053 17.6773 108.576 17.0804 108.295 16.3076C108.014 15.5348 107.945 14.6243 108.094 13.576C108.24 12.545 108.565 11.6383 109.07 10.8578C109.575 10.0774 110.212 9.46714 110.983 9.031C111.754 8.59295 112.618 8.37488 113.577 8.37488C114.195 8.37488 114.765 8.47435 115.287 8.67138C115.809 8.87032 116.253 9.17447 116.62 9.58765C116.985 10.0008 117.246 10.5269 117.399 11.1639C117.552 11.8009 117.567 12.5603 117.443 13.4383L117.339 14.1633H109.12L109.345 12.5698H115.298C115.358 12.1165 115.317 11.7129 115.176 11.359C115.034 11.0051 114.809 10.7239 114.495 10.5192C114.181 10.3145 113.799 10.2132 113.347 10.2132C112.863 10.2132 112.423 10.3299 112.025 10.5613C111.627 10.7947 111.3 11.0988 111.044 11.4757C110.788 11.8525 110.627 12.2638 110.558 12.7133L110.361 14.104C110.279 14.6874 110.313 15.1867 110.468 15.6018C110.623 16.0169 110.876 16.3344 111.228 16.5544C111.58 16.7744 112.012 16.8834 112.527 16.8834C112.869 16.8834 113.188 16.8337 113.481 16.7361C113.774 16.6386 114.036 16.4932 114.267 16.3019C114.499 16.1106 114.686 15.8734 114.832 15.5903L117.003 15.839C116.781 16.4224 116.444 16.9312 115.995 17.3635C115.545 17.7959 115 18.1325 114.361 18.3697C113.722 18.6069 113.014 18.7255 112.234 18.7255Z" fill="#2C52E9"/>
<path d="M121.451 12.6542L120.619 18.5287H118.257L119.676 8.50129H121.935L121.694 10.2057H121.811C122.121 9.64329 122.553 9.19758 123.108 8.86665C123.661 8.53572 124.313 8.37122 125.061 8.37122C125.753 8.37122 126.335 8.52042 126.809 8.81501C127.284 9.1115 127.622 9.53999 127.829 10.1005C128.034 10.6629 128.078 11.3438 127.961 12.1434L127.056 18.5287H124.694L125.547 12.5088C125.643 11.8393 125.543 11.3132 125.25 10.9345C124.958 10.5557 124.506 10.3664 123.898 10.3664C123.485 10.3664 123.106 10.4563 122.76 10.638C122.415 10.8197 122.127 11.078 121.899 11.4184C121.669 11.7589 121.522 12.1702 121.453 12.6523L121.451 12.6542Z" fill="#2C52E9"/>
<path d="M132.703 18.7066C131.915 18.7066 131.24 18.5038 130.674 18.1002C130.107 17.6965 129.7 17.1074 129.447 16.3384C129.195 15.5675 129.147 14.6321 129.304 13.5303C129.461 12.417 129.778 11.4758 130.255 10.7068C130.731 9.93786 131.311 9.35826 131.994 8.9642C132.676 8.57015 133.403 8.37312 134.172 8.37312C134.76 8.37312 135.228 8.47259 135.58 8.66962C135.93 8.86856 136.198 9.10384 136.38 9.38121C136.562 9.65858 136.697 9.91682 136.785 10.1617H136.883L137.591 5.16138H139.961L138.067 18.5306H135.743L135.967 16.9505H135.823C135.666 17.1935 135.454 17.4517 135.184 17.7233C134.915 17.995 134.578 18.2264 134.172 18.4196C133.767 18.6109 133.277 18.7066 132.701 18.7066H132.703ZM133.637 16.7669C134.138 16.7669 134.584 16.6311 134.974 16.3594C135.364 16.0878 135.685 15.7071 135.938 15.2213C136.19 14.7335 136.363 14.1653 136.454 13.5169C136.546 12.8684 136.535 12.3041 136.422 11.8259C136.309 11.3477 136.097 10.9746 135.783 10.7088C135.469 10.4429 135.06 10.3109 134.549 10.3109C134.038 10.3109 133.564 10.4486 133.172 10.7221C132.78 10.9957 132.462 11.3744 132.215 11.8584C131.969 12.3424 131.8 12.8933 131.712 13.5169C131.624 14.1443 131.634 14.7029 131.747 15.1926C131.858 15.6823 132.072 16.0668 132.386 16.348C132.701 16.6292 133.116 16.7688 133.635 16.7688L133.637 16.7669Z" fill="#2C52E9"/>
<path d="M144.481 18.7257C143.501 18.7257 142.682 18.5095 142.026 18.0791C141.368 17.6487 140.898 17.0462 140.615 16.2715C140.331 15.4967 140.263 14.5919 140.408 13.5551C140.555 12.5203 140.88 11.6117 141.384 10.8331C141.889 10.0546 142.529 9.44817 143.308 9.01777C144.086 8.58737 144.966 8.37122 145.946 8.37122C146.925 8.37122 147.744 8.58737 148.4 9.01777C149.056 9.44817 149.527 10.0526 149.812 10.8331C150.095 11.6117 150.164 12.5203 150.016 13.5551C149.869 14.5919 149.544 15.4967 149.041 16.2715C148.538 17.0462 147.895 17.6487 147.116 18.0791C146.338 18.5095 145.458 18.7257 144.479 18.7257H144.481ZM144.762 16.8319C145.292 16.8319 145.758 16.6846 146.156 16.392C146.554 16.0974 146.877 15.7033 147.124 15.2079C147.371 14.7124 147.537 14.1596 147.623 13.5494C147.709 12.9354 147.702 12.3787 147.595 11.8814C147.489 11.3821 147.279 10.9861 146.963 10.6896C146.648 10.3931 146.225 10.2458 145.695 10.2458C145.165 10.2458 144.679 10.3931 144.278 10.6896C143.876 10.9861 143.553 11.3821 143.306 11.8814C143.059 12.3806 142.893 12.9354 142.805 13.5494C142.719 14.1577 142.728 14.7105 142.834 15.2079C142.939 15.7033 143.151 16.0993 143.469 16.392C143.786 16.6865 144.217 16.8319 144.762 16.8319Z" fill="#2C52E9"/>
<path d="M150.851 18.5306L152.27 8.50325H154.562L154.324 10.1751H154.43C154.694 9.59551 155.072 9.14981 155.564 8.83418C156.056 8.51855 156.587 8.36169 157.161 8.36169C157.291 8.36169 157.439 8.36743 157.599 8.377C157.76 8.38656 157.894 8.40378 158.001 8.42673L157.693 10.5998C157.597 10.5653 157.444 10.5328 157.232 10.5041C157.02 10.4754 156.815 10.462 156.614 10.462C156.184 10.462 155.784 10.5539 155.417 10.7394C155.049 10.925 154.743 11.1794 154.502 11.5065C154.259 11.8317 154.108 12.2085 154.049 12.6351L153.215 18.5306H150.853H150.851Z" fill="#2C52E9"/>
</g>
<defs>
<clipPath id="clip0_2844_9574">
<rect width="156" height="17.985" fill="white" transform="translate(2 4.50745)"/>
</clipPath>
</defs>
</svg>
